<?xml version="1.0" encoding="utf-8"?>
<!-- Generator: Adobe Illustrator 27.1.1, SVG Export Plug-In . SVG Version: 6.00 Build 0)  -->
<svg version="1.1" xmlns="http://www.w3.org/2000/svg" xmlns:xlink="http://www.w3.org/1999/xlink" x="0px" y="0px"
	 viewBox="0 0 654.21 417.83" style="enable-background:new 0 0 654.21 417.83;" xml:space="preserve">
<style type="text/css">
	.st0{fill:#189611;}
	.st1{fill:#2C2830;}
	.st2{fill:#825946;}
	.st3{fill:#7418EA;}
	.st4{fill:#FFFFFF;}
	.st5{fill:#231F20;}
	.st6{fill:#606060;}
	.st7{opacity:0.2;fill:#606060;}
</style>
<g id="logo-blogverse">
	<g>
		<path class="st7" d="M654.42,12.69l5.9,2.05c3.11,1.08,5.55,3.52,6.63,6.63l2.05,5.9c0.33,0.94,1.66,0.94,1.99,0l2.05-5.9
			c1.08-3.11,3.52-5.55,6.63-6.63l5.9-2.05c0.94-0.33,0.94-1.66,0-1.99l-5.9-2.05c-3.11-1.08-5.55-3.52-6.63-6.63l-2.05-5.9
			c-0.33-0.94-1.66-0.94-1.99,0l-2.05,5.9c-1.08,3.11-3.52,5.55-6.63,6.63l-5.9,2.05C653.48,11.03,653.48,12.36,654.42,12.69z"/>
	</g>
	<g>
		<path class="st4" d="M89.16,226.31c-1.2-1.85-2.6-3.52-4.18-5.02c-2.74-2.59-6-4.58-9.76-5.99c-3.29-1.24-6.76-1.93-10.41-2.09
			h-0.07c-2.08,0.08-3.95,0.35-5.62,0.79c-2.04,0.55-3.84,1.26-5.41,2.12c-1.57,0.86-2.9,1.78-3.99,2.76c-1.1,0.98-2,1.94-2.71,2.88
			h-0.35v-34.61c0-2.76-2.24-5-5-5h-4.11c-2.76,0-5,2.24-5,5v55.65c0,4.47,0.81,8.52,2.41,12.17c1.61,3.64,3.78,6.76,6.53,9.34
			c2.74,2.59,5.99,4.59,9.75,6c2.7,1.01,5.52,1.66,8.46,1.94c1.16,0.11,2.33,0.17,3.53,0.17c0.35,0,0.71,0,1.06-0.02c0,0,0,0,0.01,0
			c3.84-0.1,7.48-0.8,10.92-2.09c3.76-1.41,7.02-3.41,9.76-6c2.29-2.16,4.19-4.7,5.68-7.6c0.33-0.73,0.63-1.49,0.9-2.27
			c1.26-3.6,1.88-7.48,1.88-11.64c0-4.15-0.66-8.03-1.99-11.63C90.81,229.44,90.05,227.82,89.16,226.31z M78.22,249.15
			c-0.74,2.04-1.84,3.84-3.29,5.41c-1.45,1.57-3.19,2.82-5.23,3.76c-1.98,0.91-4.21,1.38-6.7,1.41c-2.49-0.03-4.73-0.5-6.7-1.41
			c-2.04-0.94-3.78-2.19-5.23-3.76c-1.45-1.57-2.55-3.37-3.29-5.41c-0.75-2.04-1.12-4.15-1.12-6.35c0-2.19,0.37-4.31,1.12-6.35
			c0.74-2.03,1.84-3.83,3.29-5.4c1.45-1.57,3.19-2.82,5.23-3.76c1.97-0.92,4.21-1.38,6.7-1.41c2.49,0.03,4.72,0.49,6.7,1.41
			c2.04,0.94,3.78,2.19,5.23,3.76c1.45,1.57,2.55,3.37,3.29,5.4c0.74,2.04,1.12,4.16,1.12,6.35C79.34,245,78.96,247.11,78.22,249.15
			z"/>
		<path class="st4" d="M108.9,182.15h-4.11c-2.76,0-5,2.24-5,5v78.87c0,2.76,2.24,5,5,5h4.11c2.76,0,5-2.24,5-5v-78.87
			C113.9,184.39,111.66,182.15,108.9,182.15z"/>
		<path class="st4" d="M172.67,221.29c-2.74-2.59-5.99-4.58-9.76-6c-3.76-1.41-7.76-2.12-11.99-2.12c-4.23,0-8.23,0.71-11.99,2.12
			c-3.76,1.41-7.01,3.41-9.76,6c-2.74,2.59-4.92,5.7-6.52,9.35c-1.61,3.64-2.41,7.7-2.41,12.17s0.8,8.52,2.41,12.17
			c1.6,3.64,3.78,6.76,6.52,9.35c2.74,2.59,6,4.58,9.76,6c3.76,1.41,7.76,2.12,11.99,2.12c4.23,0,8.23-0.71,11.99-2.12
			c3.76-1.41,7.01-3.41,9.76-6c2.74-2.59,4.92-5.7,6.52-9.35c1.61-3.64,2.41-7.7,2.41-12.17s-0.8-8.52-2.41-12.17
			C177.59,226.99,175.42,223.88,172.67,221.29z M166.39,249.15c-0.75,2.04-1.84,3.84-3.29,5.41c-1.45,1.57-3.19,2.82-5.23,3.76
			c-2.04,0.94-4.35,1.41-6.94,1.41c-2.59,0-4.9-0.47-6.94-1.41c-2.04-0.94-3.78-2.19-5.23-3.76c-1.45-1.57-2.55-3.37-3.29-5.41
			c-0.75-2.04-1.12-4.15-1.12-6.35c0-2.19,0.37-4.31,1.12-6.35c0.74-2.04,1.84-3.84,3.29-5.41c1.45-1.57,3.19-2.82,5.23-3.76
			c2.04-0.94,4.35-1.41,6.94-1.41c2.59,0,4.9,0.47,6.94,1.41c2.04,0.94,3.78,2.2,5.23,3.76c1.45,1.57,2.55,3.37,3.29,5.41
			c0.74,2.04,1.12,4.16,1.12,6.35C167.5,245,167.13,247.11,166.39,249.15z"/>
		<path class="st4" d="M234.74,219.59v3.46h-0.24c-2.04-3.45-4.78-5.95-8.23-7.52c-3.45-1.57-7.17-2.35-11.17-2.35
			c-4.39,0-8.29,0.76-11.7,2.29c-3.41,1.53-6.33,3.63-8.76,6.29c-2.43,2.67-4.27,5.8-5.53,9.4c-1.25,3.61-1.88,7.48-1.88,11.64
			c0,4,0.67,7.76,2,11.29c1.33,3.53,3.23,6.58,5.7,9.17c2.47,2.59,5.42,4.64,8.87,6.17c3.45,1.53,7.29,2.29,11.52,2.29
			c3.53,0,6.97-0.69,10.34-2.06c3.37-1.37,6.07-3.43,8.11-6.17h0.24v4.11c0,2.82-0.29,5.39-0.88,7.7c-0.59,2.31-1.57,4.29-2.94,5.94
			c-1.37,1.65-3.21,2.94-5.53,3.88c-2.31,0.94-5.15,1.41-8.52,1.41c-4,0-7.52-0.71-10.58-2.12c-1.73-0.8-3.42-1.78-5.07-2.96
			c-2.19-1.56-5.25-1-6.84,1.17L191.2,286c-1.7,2.32-1.1,5.58,1.3,7.16c2.8,1.83,5.75,3.19,8.85,4.07c4.7,1.33,9.68,2,14.93,2
			c5.48,0,10.23-0.78,14.22-2.35c4-1.57,7.31-3.78,9.93-6.64c2.62-2.86,4.56-6.35,5.82-10.46c1.25-4.11,1.88-8.72,1.88-13.81v-51.37
			h-8.4C236.98,214.59,234.74,216.83,234.74,219.59z M233.56,249.03c-0.78,2.04-1.9,3.78-3.35,5.23c-1.45,1.45-3.21,2.61-5.29,3.47
			c-2.08,0.86-4.41,1.29-6.99,1.29c-2.35,0-4.55-0.43-6.58-1.29c-2.04-0.86-3.8-2.04-5.29-3.53c-1.49-1.49-2.65-3.21-3.47-5.17
			c-0.82-1.96-1.23-4.07-1.23-6.35c0-2.51,0.41-4.8,1.23-6.88c0.82-2.08,1.96-3.84,3.41-5.29c1.45-1.45,3.19-2.59,5.23-3.41
			c2.04-0.82,4.31-1.23,6.82-1.23c5.17,0,9.25,1.53,12.23,4.58c2.98,3.06,4.47,7.05,4.47,11.99
			C234.74,244.8,234.35,247,233.56,249.03z"/>
		<path class="st4" d="M302.06,214.59c-2.07,0-3.93,1.28-4.67,3.21l-13.93,36.29h-0.24l-13.82-36.28c-0.74-1.94-2.6-3.22-4.67-3.22
			h-11.95l21.77,53.31c0.77,1.88,2.6,3.11,4.63,3.11h8.28c2.05,0,3.9-1.26,4.65-3.17l20.97-53.26H302.06z"/>
		<path class="st4" d="M365.75,230.76c-1.29-3.8-3.1-6.99-5.41-9.58c-2.31-2.59-5.09-4.56-8.35-5.94
			c-3.25-1.37-6.84-2.06-10.76-2.06c-4.23,0-8.23,0.71-11.99,2.12s-7.01,3.41-9.76,6c-2.74,2.59-4.92,5.7-6.52,9.35
			c-1.61,3.64-2.41,7.7-2.41,12.17s0.8,8.52,2.41,12.17c1.61,3.64,3.78,6.76,6.52,9.35c2.74,2.59,6,4.58,9.76,6
			c3.76,1.41,7.76,2.12,11.99,2.12c4.47,0,8.74-0.86,12.81-2.59c2.45-1.04,4.77-2.5,6.94-4.39c2.36-2.06,2.14-5.8-0.35-7.68
			l-2.12-1.6c-1.93-1.46-4.58-1.28-6.4,0.31c-1.06,0.93-2.2,1.76-3.41,2.49c-2.39,1.45-5.35,2.17-8.88,2.17
			c-4,0-7.41-1.18-10.23-3.53c-2.82-2.35-4.47-5.64-4.94-9.87h37.95c2.8,0,5.06-2.3,5-5.1c-0.03-1.43-0.07-2.75-0.12-3.3
			C367.21,236.22,366.63,233.35,365.75,230.76z M324.66,237.16c0.55-4.07,2.06-7.33,4.53-9.76c2.47-2.43,5.82-3.64,10.05-3.64
			c4.47,0,7.95,1.2,10.46,3.59c2.51,2.39,3.8,5.66,3.88,9.81H324.66z"/>
		<path class="st4" d="M407.86,213.45c-0.05-0.01-0.1-0.02-0.15-0.03c-0.82-0.16-1.67-0.23-2.53-0.23c-3.76,0-7.09,0.9-9.99,2.7
			c-2.9,1.8-5.13,4.35-6.7,7.64h-0.23v-3.93c0-2.76-2.24-5-5-5h-9.11v51.42c0,2.76,2.24,5,5,5h4.11c2.76,0,5-2.24,5-5v-25.21
			c0-0.78,0.18-1.96,0.53-3.53c0.35-1.57,1.06-3.13,2.12-4.7c1.06-1.57,2.59-2.96,4.58-4.17c2-1.21,4.64-1.82,7.93-1.82
			c1.1,0,2.21,0.1,3.35,0.29c0.01,0,0.02,0,0.03,0.01c1.79,0.31,3.43-1.03,3.43-2.84v-7.65
			C410.23,214.97,409.25,213.72,407.86,213.45z"/>
		<path class="st4" d="M434.45,272.43c2.9,0,5.8-0.31,8.7-0.94c2.9-0.63,5.5-1.65,7.82-3.06c2.31-1.41,4.19-3.27,5.64-5.58
			c1.45-2.31,2.17-5.15,2.17-8.52c0-3.68-0.75-6.58-2.23-8.7c-1.49-2.12-3.37-3.78-5.64-5c-2.27-1.21-4.72-2.12-7.35-2.7
			c-2.63-0.59-5.07-1.16-7.35-1.71c-2.27-0.55-4.15-1.21-5.64-2c-1.49-0.78-2.23-2.04-2.23-3.76c0-2.12,0.9-3.64,2.7-4.58
			c1.8-0.94,3.64-1.41,5.52-1.41c2.97,0,5.56,0.79,7.75,2.38c2.32,1.68,5.54,1.37,7.66-0.55l0.17-0.15c2.99-2.69,2.6-7.6-0.9-9.59
			c-0.99-0.56-2.05-1.04-3.17-1.44c-3.68-1.29-7.41-1.94-11.17-1.94c-2.82,0-5.6,0.35-8.35,1.06c-2.74,0.71-5.17,1.8-7.29,3.29
			c-2.12,1.49-3.82,3.39-5.11,5.7c-1.29,2.31-1.94,5.04-1.94,8.17c0,3.61,0.74,6.43,2.23,8.46c1.49,2.04,3.37,3.63,5.64,4.76
			c2.27,1.14,4.72,1.96,7.35,2.47c2.62,0.51,5.07,1.06,7.35,1.65c2.27,0.59,4.15,1.35,5.64,2.29c1.49,0.94,2.23,2.39,2.23,4.35
			c0,1.1-0.29,2.06-0.88,2.88c-0.59,0.82-1.35,1.51-2.29,2.06c-0.94,0.55-1.96,0.94-3.06,1.18c-1.1,0.24-2.16,0.35-3.17,0.35
			c-2.98,0-5.51-0.65-7.58-1.94c-0.69-0.43-1.37-0.9-2.03-1.42c-2.37-1.84-5.7-1.79-7.89,0.27l-0.43,0.41
			c-2.94,2.75-2.37,7.53,1.1,9.58c1.25,0.74,2.55,1.34,3.91,1.8C426.02,271.8,430.06,272.43,434.45,272.43z"/>
		<path class="st4" d="M470.16,264.32c2.74,2.59,6,4.58,9.76,6c3.76,1.41,7.76,2.12,11.99,2.12c4.47,0,8.74-0.86,12.81-2.59
			c2.45-1.04,4.77-2.5,6.94-4.39c2.36-2.06,2.14-5.8-0.35-7.68l-2.12-1.6c-1.93-1.46-4.58-1.28-6.4,0.31
			c-1.06,0.93-2.2,1.76-3.41,2.49c-2.39,1.45-5.35,2.17-8.88,2.17c-4,0-7.41-1.18-10.23-3.53c-2.82-2.35-4.47-5.64-4.94-9.87h37.95
			c2.8,0,5.06-2.3,5-5.1c-0.03-1.43-0.07-2.75-0.12-3.3c-0.28-3.13-0.86-5.99-1.75-8.59c-1.29-3.8-3.1-6.99-5.41-9.58
			c-2.31-2.59-5.09-4.56-8.35-5.94c-3.25-1.37-6.84-2.06-10.76-2.06c-4.23,0-8.23,0.71-11.99,2.12s-7.01,3.41-9.76,6
			c-2.74,2.59-4.92,5.7-6.52,9.35c-1.61,3.64-2.41,7.7-2.41,12.17s0.8,8.52,2.41,12.17C465.24,258.61,467.42,261.73,470.16,264.32z
			 M479.86,227.41c2.47-2.43,5.82-3.64,10.05-3.64c4.47,0,7.95,1.2,10.46,3.59c2.51,2.39,3.8,5.66,3.88,9.81h-28.92
			C475.88,233.09,477.39,229.84,479.86,227.41z"/>
		<path class="st4" d="M525.33,268.06c0.86,0.78,1.86,1.41,3,1.88c1.14,0.47,2.33,0.71,3.59,0.71c2.59,0,4.8-0.9,6.64-2.7
			c1.84-1.8,2.76-3.96,2.76-6.47c0-2.51-0.94-4.62-2.82-6.35c-1.88-1.72-4.08-2.59-6.58-2.59c-2.59,0-4.8,0.9-6.64,2.7
			c-1.84,1.8-2.76,3.96-2.76,6.46c0,1.25,0.25,2.43,0.76,3.53C523.78,266.34,524.47,267.28,525.33,268.06z"/>
		<path class="st4" d="M552.89,267.12c1.92,1.41,4.11,2.47,6.58,3.17s5,1.06,7.58,1.06h8.24c16.34,0,22.91-10.26,22.91-22.91V237.5
			c0-1.33-0.04-2.88-0.12-4.64c-0.08-1.76-0.33-3.58-0.76-5.47c-0.43-1.88-1.14-3.74-2.12-5.58c-0.98-1.84-2.37-3.47-4.17-4.88
			c-1.8-1.41-4.08-2.57-6.82-3.47c-2.74-0.9-6.11-1.35-10.11-1.35c-4.47,0-8.8,0.71-12.99,2.12c-2.24,0.75-4.33,1.76-6.26,3.03
			c-2.68,1.76-3.13,5.5-0.86,7.77l0.43,0.43c1.66,1.66,4.25,1.93,6.23,0.67c1.11-0.71,2.3-1.32,3.59-1.85
			c2.59-1.06,5.37-1.59,8.35-1.59c3.76,0,6.86,0.88,9.29,2.65c2.43,1.76,3.64,4.41,3.64,7.93v1.53h-3.53
			c-2.35,0-4.86,0.06-7.52,0.18c-2.67,0.12-5.31,0.39-7.93,0.82c-2.63,0.43-5.15,1.08-7.58,1.94c-2.43,0.86-4.57,2.02-6.41,3.47
			c-1.84,1.45-3.31,3.25-4.41,5.41c-1.1,2.16-1.65,4.76-1.65,7.82c0,2.82,0.59,5.29,1.76,7.41
			C549.43,263.95,550.97,265.71,552.89,267.12z M562.83,248.61c1.49-1.13,3.31-2,5.47-2.59c2.15-0.59,4.45-0.96,6.88-1.12
			c2.43-0.16,4.62-0.24,6.58-0.24h2.94v3.17c0,4-1.16,7.15-3.47,9.46c-2.31,2.31-5.9,3.47-10.75,3.47c-1.18,0-2.35-0.14-3.53-0.41
			c-1.17-0.27-2.23-0.72-3.17-1.35c-0.94-0.63-1.7-1.39-2.29-2.29c-0.59-0.9-0.88-2.02-0.88-3.35
			C560.59,251.33,561.34,249.75,562.83,248.61z"/>
		<path class="st4" d="M612.49,202.82c2.59,0,4.76-0.8,6.52-2.41c1.76-1.6,2.64-3.62,2.64-6.05c0-2.43-0.88-4.45-2.64-6.05
			c-1.76-1.61-3.94-2.41-6.52-2.41c-2.59,0-4.72,0.84-6.41,2.53c-1.69,1.69-2.53,3.66-2.53,5.94c0,2.27,0.84,4.25,2.53,5.94
			C607.77,201.98,609.9,202.82,612.49,202.82z"/>
		<path class="st4" d="M614.66,213.52h-4.11c-2.76,0-5,2.24-5,5v46.42c0,2.76,2.24,5,5,5h4.11c2.76,0,5-2.24,5-5v-46.42
			C619.66,215.76,617.42,213.52,614.66,213.52z"/>
		<path class="st4" d="M292.34,80.12l-21.21,7.38c-3.38,1.18-3.38,5.96,0,7.14l21.21,7.38c11.16,3.88,19.93,12.65,23.81,23.81
			l7.38,21.21c1.18,3.38,5.96,3.38,7.14,0l7.38-21.21c3.88-11.16,12.65-19.93,23.81-23.81l21.21-7.38c3.38-1.18,3.38-5.96,0-7.14
			l-21.21-7.38c-11.16-3.88-19.93-12.65-23.81-23.81l-7.38-21.21c-1.18-3.38-5.96-3.38-7.14,0l-6.75,19.4v0c0,0,0,0.01-0.01,0.03
			l-0.16,0.46c-0.26,0.82-0.75,2.61-0.75,4.71v1.5c0,0,0.18,7.42,6.92,6.28c1.4-0.25,2.85-0.39,4.32-0.39
			c13.25,0,23.99,10.74,23.99,23.98c0,13.25-10.74,23.99-23.99,23.99c-13.25,0-23.99-10.74-23.99-23.99V74.32
			C299.9,76.79,296.27,78.76,292.34,80.12z"/>
		<path class="st4" d="M338.34,91.07c0-6.2-5.03-11.23-11.24-11.23c-6.2,0-11.24,5.03-11.24,11.23c0,6.21,5.03,11.24,11.24,11.24
			C333.31,102.31,338.34,97.28,338.34,91.07z"/>
		<path class="st4" d="M269.3,49.84l5.9,2.05c3.11,1.08,5.55,3.52,6.63,6.63l2.05,5.9c0.33,0.94,1.66,0.94,1.99,0l2.05-5.9
			c1.08-3.11,3.52-5.55,6.63-6.63l5.9-2.05c0.94-0.33,0.94-1.66,0-1.99l-5.9-2.05c-3.11-1.08-5.55-3.52-6.63-6.63l-2.05-5.9
			c-0.33-0.94-1.66-0.94-1.99,0l-2.05,5.9c-1.08,3.11-3.52,5.55-6.63,6.63l-5.9,2.05C268.36,48.18,268.36,49.51,269.3,49.84z"/>
		<polygon class="st4" points="473.92,333.58 469.99,345.3 478.08,345.3 474.14,333.58 		"/>
		<path class="st4" d="M502.8,339.69c-0.76-0.58-1.7-0.87-2.81-0.87c-1.15,0-2.1,0.3-2.87,0.9c-0.77,0.6-1.34,1.42-1.73,2.47
			c-0.39,1.05-0.58,2.25-0.58,3.61c0,1.36,0.2,2.58,0.59,3.64s0.98,1.9,1.75,2.51c0.77,0.61,1.72,0.92,2.85,0.92
			c1.09,0,2.02-0.3,2.78-0.89c0.77-0.59,1.35-1.42,1.75-2.48c0.4-1.06,0.6-2.3,0.6-3.71s-0.2-2.64-0.59-3.68
			C504.14,341.08,503.56,340.27,502.8,339.69z"/>
		<path class="st4" d="M578.64,299.23H464.68c-23.76,0-43.02,19.26-43.02,43.02s19.26,43.02,43.02,43.02h113.95
			c23.76,0,43.02-19.26,43.02-43.02S602.4,299.23,578.64,299.23z M481.91,356.71l-2.41-7.17h-10.94l-2.41,7.17h-5.62l10.24-29.09
			h6.51l10.26,29.09H481.91z M510.18,356.71h-5.06v-3.44h-0.31c-0.26,0.53-0.65,1.09-1.15,1.68s-1.17,1.1-1.99,1.51
			c-0.82,0.42-1.86,0.62-3.11,0.62c-1.71,0-3.25-0.44-4.6-1.32c-1.35-0.88-2.42-2.16-3.21-3.83c-0.79-1.68-1.18-3.71-1.18-6.11
			c0-2.42,0.4-4.47,1.2-6.14c0.8-1.67,1.88-2.94,3.25-3.79c1.36-0.86,2.88-1.29,4.56-1.29c1.28,0,2.33,0.22,3.15,0.65
			s1.48,0.95,1.96,1.55c0.48,0.6,0.86,1.17,1.12,1.7h0.21v-10.88h5.16V356.71z M546.36,356.71h-5.16v-13.85
			c0-1.35-0.36-2.35-1.08-2.98s-1.6-0.94-2.64-0.94c-1.24,0-2.21,0.39-2.91,1.16c-0.7,0.77-1.04,1.77-1.04,3v13.61h-5.04v-14.06
			c0-1.13-0.34-2.03-1.02-2.7c-0.68-0.67-1.56-1.01-2.65-1.01c-0.74,0-1.41,0.19-2.02,0.56c-0.61,0.37-1.09,0.9-1.45,1.58
			c-0.36,0.68-0.54,1.46-0.54,2.37v13.27h-5.14v-21.82h4.92v3.71h0.26c0.45-1.25,1.21-2.23,2.26-2.93c1.05-0.71,2.31-1.06,3.76-1.06
			c1.48,0,2.73,0.36,3.74,1.07c1.02,0.72,1.74,1.69,2.15,2.92h0.23c0.48-1.21,1.3-2.18,2.45-2.91c1.15-0.72,2.52-1.09,4.1-1.09
			c2.01,0,3.65,0.63,4.92,1.9c1.27,1.27,1.9,3.12,1.9,5.55V356.71z M556.73,356.71h-5.14v-21.82h5.14V356.71z M556.27,330.98
			c-0.58,0.54-1.28,0.82-2.09,0.82c-0.82,0-1.53-0.27-2.11-0.82c-0.58-0.54-0.87-1.2-0.87-1.97c0-0.78,0.29-1.44,0.88-1.98
			c0.59-0.54,1.29-0.82,2.1-0.82s1.51,0.27,2.09,0.82c0.58,0.54,0.87,1.21,0.87,1.98C557.14,329.78,556.85,330.43,556.27,330.98z
			 M581.16,356.71h-5.14v-13.1c0-1.46-0.38-2.6-1.13-3.42c-0.75-0.82-1.79-1.24-3.12-1.24c-0.9,0-1.7,0.2-2.39,0.59
			c-0.7,0.39-1.24,0.96-1.63,1.7c-0.39,0.74-0.59,1.63-0.59,2.68v12.78h-5.14v-21.82h4.92v3.71h0.26c0.5-1.22,1.3-2.19,2.41-2.91
			c1.1-0.72,2.47-1.08,4.1-1.08c1.51,0,2.82,0.32,3.94,0.97c1.12,0.64,1.99,1.58,2.61,2.8c0.62,1.22,0.92,2.7,0.92,4.45V356.71z"/>
	</g>
</g>
<g id="Layer_2">
</g>
</svg>
