<svg version="1.1" x="0px" y="0px" viewBox="0 0 400 400" style="enable-background:new 0 0 400 400;"
  xmlns="http://www.w3.org/2000/svg">
  <defs></defs>
  <style type="text/css">
    .st0{fill:#189611;}
    .st1{fill:#2C2830;}
    .st2{fill:#825946;}
    .st3{fill:#7418EA;}
    .st4{fill:#FFFFFF;}
    .st5{fill:#231F20;}
    .st6{fill:#606060;}
    .st7{opacity:0.2;fill:#606060;}
    .st8{fill-rule:evenodd;clip-rule:evenodd;fill:#2C2830;}
</style>
  <g id="logo-blogverse">
    <g>
      <path class="st1"
        d="M343.5,190.85l-54.38-18.92c-28.61-9.96-51.09-32.44-61.05-61.05L209.15,56.5c-3.02-8.67-15.28-8.67-18.29,0
			l-17.31,49.73v0c0,0-0.01,0.02-0.03,0.07l-0.41,1.17c-0.68,2.11-1.92,6.69-1.92,12.07v3.86c0,0,0.46,19.03,17.73,16.1
			c3.59-0.65,7.3-0.99,11.08-0.99c33.96,0,61.49,27.53,61.49,61.49c0,33.96-27.53,61.49-61.49,61.49s-61.49-27.53-61.49-61.49
			v-42.95c-8.27,6.32-17.57,11.37-27.63,14.87L56.5,190.85c-8.67,3.02-8.67,15.28,0,18.3l54.38,18.92
			c28.61,9.96,51.09,32.44,61.05,61.05l18.93,54.37c3.02,8.67,15.28,8.67,18.29,0l18.93-54.37c9.95-28.61,32.44-51.09,61.05-61.05
			l54.38-18.92C352.17,206.13,352.17,193.87,343.5,190.85z"
        style="fill: rgb(255, 255, 255);"></path>
      <path class="st1"
        d="M228.8,200c0-15.91-12.9-28.8-28.8-28.8s-28.81,12.9-28.81,28.8c0,15.91,12.9,28.81,28.81,28.81
			S228.8,215.91,228.8,200z"
        style="fill: rgb(255, 255, 255);"></path>
      <path class="st1"
        d="M51.81,94.29l15.13,5.27c7.96,2.77,14.22,9.03,16.99,16.99l5.27,15.13c0.84,2.41,4.25,2.41,5.09,0l5.27-15.13
			c2.77-7.96,9.03-14.22,16.99-16.99l15.13-5.27c2.41-0.84,2.41-4.25,0-5.09l-15.13-5.27c-7.96-2.77-14.22-9.03-16.99-16.99
			l-5.27-15.13c-0.84-2.41-4.25-2.41-5.09,0l-5.27,15.13c-2.77,7.96-9.03,14.22-16.99,16.99L51.81,89.2
			C49.4,90.04,49.4,93.45,51.81,94.29z"
        style="fill: rgb(255, 255, 255);"></path>
    </g>
  </g>
  <g id="Layer_2"></g>
</svg>