<svg version="1.1" x="0px" y="0px" viewBox="0 0 787.57 182.21"
  style="enable-background:new 0 0 787.57 182.21;" xmlns="http://www.w3.org/2000/svg">
  <defs></defs>
  <style type="text/css">
    .st0{fill:#189611;}
    .st1{fill:#2C2830;}
    .st2{fill:#825946;}
    .st3{fill:#7418EA;}
    .st4{fill:#FFFFFF;}
    .st5{fill:#231F20;}
    .st6{fill:#606060;}
    .st7{opacity:0.2;fill:#606060;}
</style>
  <g id="logo-blogverse">
    <g>
      <g>
        <g>
          <path class="st1"
            d="M224.75,81.59c-0.64-1.73-1.4-3.35-2.29-4.86c-1.2-1.85-2.6-3.52-4.18-5.02c-2.74-2.59-6-4.58-9.76-5.99
					c-3.29-1.24-6.76-1.93-10.41-2.09h-0.07c-2.08,0.08-3.95,0.35-5.62,0.79c-2.04,0.55-3.84,1.26-5.41,2.12
					c-1.57,0.86-2.9,1.78-3.99,2.76c-1.1,0.98-2,1.94-2.71,2.88h-0.35V37.57c0-2.76-2.24-5-5-5h-4.11c-2.76,0-5,2.24-5,5v55.65
					c0,4.47,0.81,8.52,2.41,12.17c1.61,3.64,3.78,6.76,6.53,9.34c2.74,2.59,5.99,4.59,9.75,6c2.7,1.01,5.52,1.66,8.46,1.94
					c1.89,0.07,3.47,0.12,4.59,0.15c0,0,0,0,0.01,0c3.84-0.1,7.48-0.8,10.92-2.09c3.76-1.41,7.02-3.41,9.76-6
					c2.29-2.16,4.19-4.7,5.68-7.6c0.33-0.73,0.63-1.49,0.9-2.27c1.26-3.6,1.88-7.48,1.88-11.64
					C226.74,89.07,226.08,85.19,224.75,81.59z M211.52,99.57c-0.74,2.04-1.84,3.84-3.29,5.41c-1.45,1.57-3.19,2.82-5.23,3.76
					c-1.98,0.91-4.21,1.38-6.7,1.41c-2.49-0.03-4.73-0.5-6.7-1.41c-2.04-0.94-3.78-2.19-5.23-3.76c-1.45-1.57-2.55-3.37-3.29-5.41
					c-0.75-2.04-1.12-4.15-1.12-6.35c0-2.19,0.37-4.31,1.12-6.35c0.74-2.03,1.84-3.83,3.29-5.4s3.19-2.82,5.23-3.76
					c1.97-0.92,4.21-1.38,6.7-1.41c2.49,0.03,4.72,0.49,6.7,1.41c2.04,0.94,3.78,2.19,5.23,3.76s2.55,3.37,3.29,5.4
					c0.74,2.04,1.12,4.16,1.12,6.35C212.64,95.42,212.26,97.53,211.52,99.57z"
            style="fill: rgb(255, 255, 255);"></path>
          <path class="st1"
            d="M238.09,32.57h4.11c2.76,0,5,2.24,5,5v78.87c0,2.76-2.24,5-5,5h-4.11c-2.76,0-5-2.24-5-5V37.57
					C233.09,34.81,235.33,32.57,238.09,32.57z"
            style="fill: rgb(255, 255, 255);"></path>
          <path class="st1"
            d="M253.54,93.22c0-4.47,0.8-8.52,2.41-12.17c1.6-3.64,3.78-6.76,6.52-9.35c2.74-2.59,6-4.58,9.76-6
					c3.76-1.41,7.76-2.12,11.99-2.12c4.23,0,8.23,0.71,11.99,2.12c3.76,1.41,7.01,3.41,9.76,6c2.74,2.59,4.92,5.7,6.52,9.35
					c1.61,3.64,2.41,7.7,2.41,12.17s-0.8,8.52-2.41,12.17c-1.61,3.64-3.78,6.76-6.52,9.35c-2.74,2.59-5.99,4.58-9.76,6
					c-3.76,1.41-7.76,2.12-11.99,2.12c-4.23,0-8.23-0.71-11.99-2.12c-3.76-1.41-7.01-3.41-9.76-6c-2.74-2.59-4.92-5.7-6.52-9.35
					C254.34,101.75,253.54,97.69,253.54,93.22z M267.65,93.22c0,2.2,0.37,4.31,1.12,6.35c0.74,2.04,1.84,3.84,3.29,5.41
					c1.45,1.57,3.19,2.82,5.23,3.76c2.04,0.94,4.35,1.41,6.94,1.41c2.59,0,4.9-0.47,6.94-1.41c2.04-0.94,3.78-2.19,5.23-3.76
					c1.45-1.57,2.55-3.37,3.29-5.41c0.74-2.04,1.12-4.15,1.12-6.35c0-2.19-0.37-4.31-1.12-6.35c-0.75-2.04-1.84-3.84-3.29-5.41
					c-1.45-1.57-3.19-2.82-5.23-3.76c-2.04-0.94-4.35-1.41-6.94-1.41c-2.59,0-4.9,0.47-6.94,1.41c-2.04,0.94-3.78,2.2-5.23,3.76
					c-1.45,1.57-2.55,3.37-3.29,5.41C268.02,88.92,267.65,91.03,267.65,93.22z"
            style="fill: rgb(255, 255, 255);"></path>
          <path class="st1"
            d="M193,122.67c1.16,0.11,2.33,0.17,3.53,0.17c0.35,0,0.71,0,1.06-0.02
					C196.47,122.79,194.89,122.74,193,122.67z"
            style="fill: rgb(255, 255, 255);"></path>
          <path class="st1"
            d="M381.43,65.01v51.37c0,5.09-0.63,9.7-1.88,13.81c-1.25,4.11-3.19,7.6-5.82,10.46
					c-2.63,2.86-5.94,5.07-9.93,6.64c-4,1.57-8.74,2.35-14.22,2.35c-5.25,0-10.23-0.67-14.93-2c-3.1-0.88-6.05-2.24-8.85-4.07
					c-2.4-1.58-3-4.84-1.3-7.16l2.47-3.36c1.59-2.17,4.65-2.73,6.84-1.17c1.65,1.17,3.34,2.16,5.07,2.96
					c3.06,1.41,6.58,2.12,10.58,2.12c3.37,0,6.21-0.47,8.52-1.41c2.31-0.94,4.15-2.23,5.53-3.88c1.37-1.65,2.35-3.62,2.94-5.94
					c0.59-2.31,0.88-4.88,0.88-7.7v-4.11h-0.24c-2.04,2.74-4.74,4.8-8.11,6.17c-3.37,1.37-6.82,2.06-10.34,2.06
					c-4.23,0-8.07-0.76-11.52-2.29c-3.45-1.53-6.41-3.58-8.87-6.17c-2.47-2.59-4.37-5.64-5.7-9.17c-1.33-3.53-2-7.29-2-11.29
					c0-4.15,0.63-8.03,1.88-11.64c1.25-3.6,3.09-6.74,5.53-9.4c2.43-2.66,5.35-4.76,8.76-6.29c3.41-1.53,7.31-2.29,11.7-2.29
					c4,0,7.72,0.78,11.17,2.35c3.45,1.57,6.19,4.08,8.23,7.52h0.24v-3.46c0-2.76,2.24-5,5-5H381.43z M351.34,76.3
					c-2.51,0-4.78,0.41-6.82,1.23c-2.04,0.82-3.78,1.96-5.23,3.41c-1.45,1.45-2.59,3.21-3.41,5.29c-0.82,2.08-1.23,4.37-1.23,6.88
					c0,2.27,0.41,4.39,1.23,6.35c0.82,1.96,1.98,3.68,3.47,5.17c1.49,1.49,3.25,2.67,5.29,3.53c2.04,0.86,4.23,1.29,6.58,1.29
					c2.59,0,4.92-0.43,6.99-1.29c2.08-0.86,3.84-2.02,5.29-3.47c1.45-1.45,2.57-3.19,3.35-5.23c0.78-2.04,1.18-4.23,1.18-6.58
					c0-4.94-1.49-8.93-4.47-11.99C360.59,77.83,356.51,76.3,351.34,76.3z"
            style="fill: rgb(255, 255, 255);"></path>
          <path class="st1"
            d="M386.08,65.01h11.95c2.07,0,3.93,1.28,4.67,3.22l13.82,36.28h0.24l13.93-36.29
					c0.74-1.93,2.6-3.21,4.67-3.21h11.02l-20.97,53.26c-0.75,1.91-2.6,3.17-4.65,3.17h-8.28c-2.03,0-3.86-1.23-4.63-3.11
					L386.08,65.01z"
            style="fill: rgb(255, 255, 255);"></path>
          <path class="st1"
            d="M457.96,98.16c0.47,4.23,2.12,7.52,4.94,9.87c2.82,2.35,6.23,3.53,10.23,3.53c3.53,0,6.48-0.72,8.88-2.17
					c1.21-0.74,2.35-1.57,3.41-2.49c1.82-1.59,4.47-1.77,6.4-0.31l2.12,1.6c2.5,1.89,2.71,5.63,0.35,7.68
					c-2.17,1.89-4.48,3.36-6.94,4.39c-4.08,1.72-8.35,2.59-12.81,2.59c-4.23,0-8.23-0.71-11.99-2.12c-3.76-1.41-7.01-3.41-9.76-6
					c-2.74-2.59-4.92-5.7-6.52-9.35c-1.61-3.64-2.41-7.7-2.41-12.17s0.8-8.52,2.41-12.17c1.61-3.64,3.78-6.76,6.52-9.35
					c2.74-2.59,6-4.58,9.76-6s7.76-2.12,11.99-2.12c3.92,0,7.5,0.69,10.76,2.06c3.25,1.37,6.03,3.35,8.35,5.94
					c2.31,2.59,4.11,5.78,5.41,9.58c0.88,2.6,1.47,5.46,1.75,8.59c0.05,0.54,0.09,1.86,0.12,3.3c0.06,2.8-2.2,5.1-5,5.1H457.96z
					 M486.87,87.58c-0.08-4.15-1.37-7.42-3.88-9.81c-2.51-2.39-6-3.59-10.46-3.59c-4.23,0-7.58,1.22-10.05,3.64
					c-2.47,2.43-3.98,5.68-4.53,9.76H486.87z"
            style="fill: rgb(255, 255, 255);"></path>
          <path class="st1"
            d="M507.44,65.01h9.11c2.76,0,5,2.24,5,5v3.93h0.23c1.57-3.29,3.8-5.84,6.7-7.64c2.9-1.8,6.23-2.7,9.99-2.7
					c0.86,0,1.7,0.08,2.53,0.23c0.05,0.01,0.1,0.02,0.15,0.03c1.39,0.27,2.38,1.52,2.38,2.94v7.65c0,1.81-1.65,3.16-3.43,2.84
					c-0.01,0-0.02,0-0.03-0.01c-1.14-0.19-2.25-0.29-3.35-0.29c-3.29,0-5.94,0.61-7.93,1.82c-2,1.22-3.53,2.61-4.58,4.17
					c-1.06,1.57-1.76,3.13-2.12,4.7c-0.35,1.57-0.53,2.74-0.53,3.53v25.21c0,2.76-2.24,5-5,5h-4.11c-2.76,0-5-2.24-5-5V65.01z"
            style="fill: rgb(255, 255, 255);"></path>
          <path class="st1"
            d="M585.27,76.72c-2.13,1.91-5.34,2.22-7.66,0.55c-2.2-1.59-4.78-2.38-7.75-2.38c-1.88,0-3.72,0.47-5.52,1.41
					c-1.8,0.94-2.7,2.47-2.7,4.58c0,1.72,0.74,2.98,2.23,3.76c1.49,0.78,3.37,1.45,5.64,2c2.27,0.55,4.72,1.12,7.35,1.71
					c2.62,0.59,5.07,1.49,7.35,2.7c2.27,1.22,4.15,2.88,5.64,5c1.49,2.12,2.23,5.02,2.23,8.7c0,3.37-0.73,6.21-2.17,8.52
					c-1.45,2.31-3.33,4.17-5.64,5.58c-2.31,1.41-4.92,2.43-7.82,3.06c-2.9,0.63-5.8,0.94-8.7,0.94c-4.39,0-8.42-0.63-12.11-1.88
					c-1.36-0.46-2.66-1.06-3.91-1.8c-3.47-2.05-4.04-6.83-1.1-9.58l0.43-0.41c2.19-2.05,5.52-2.11,7.89-0.27
					c0.66,0.51,1.34,0.99,2.03,1.42c2.08,1.29,4.6,1.94,7.58,1.94c1.02,0,2.08-0.12,3.17-0.35c1.1-0.24,2.12-0.63,3.06-1.18
					c0.94-0.55,1.7-1.23,2.29-2.06c0.59-0.82,0.88-1.78,0.88-2.88c0-1.96-0.75-3.41-2.23-4.35c-1.49-0.94-3.37-1.7-5.64-2.29
					c-2.27-0.59-4.72-1.13-7.35-1.65c-2.63-0.51-5.08-1.33-7.35-2.47c-2.27-1.13-4.16-2.72-5.64-4.76
					c-1.49-2.04-2.23-4.86-2.23-8.46c0-3.13,0.65-5.86,1.94-8.17c1.29-2.31,3-4.21,5.11-5.7c2.12-1.49,4.54-2.59,7.29-3.29
					c2.74-0.71,5.52-1.06,8.35-1.06c3.76,0,7.48,0.65,11.17,1.94c1.12,0.39,2.18,0.87,3.17,1.44c3.49,1.99,3.89,6.9,0.9,9.59
					L585.27,76.72z"
            style="fill: rgb(255, 255, 255);"></path>
          <path class="st1"
            d="M608.63,98.16c0.47,4.23,2.12,7.52,4.94,9.87c2.82,2.35,6.23,3.53,10.23,3.53c3.53,0,6.48-0.72,8.88-2.17
					c1.21-0.74,2.35-1.57,3.41-2.49c1.82-1.59,4.47-1.77,6.4-0.31l2.12,1.6c2.5,1.89,2.71,5.63,0.35,7.68
					c-2.17,1.89-4.48,3.36-6.94,4.39c-4.08,1.72-8.35,2.59-12.81,2.59c-4.23,0-8.23-0.71-11.99-2.12c-3.76-1.41-7.01-3.41-9.76-6
					c-2.74-2.59-4.92-5.7-6.52-9.35c-1.61-3.64-2.41-7.7-2.41-12.17s0.8-8.52,2.41-12.17c1.61-3.64,3.78-6.76,6.52-9.35
					c2.74-2.59,6-4.58,9.76-6s7.76-2.12,11.99-2.12c3.92,0,7.5,0.69,10.76,2.06c3.25,1.37,6.03,3.35,8.35,5.94
					c2.31,2.59,4.11,5.78,5.41,9.58c0.88,2.6,1.47,5.46,1.75,8.59c0.05,0.54,0.09,1.86,0.12,3.3c0.06,2.8-2.2,5.1-5,5.1H608.63z
					 M637.54,87.58c-0.08-4.15-1.37-7.42-3.88-9.81c-2.51-2.39-6-3.59-10.46-3.59c-4.23,0-7.58,1.22-10.05,3.64
					c-2.47,2.43-3.98,5.68-4.53,9.76H637.54z"
            style="fill: rgb(255, 255, 255);"></path>
        </g>
        <g>
          <path class="st3"
            d="M655.8,112.14c0-2.51,0.92-4.66,2.76-6.46c1.84-1.8,4.05-2.7,6.64-2.7c2.51,0,4.7,0.86,6.58,2.59
					c1.88,1.72,2.82,3.84,2.82,6.35c0,2.51-0.92,4.66-2.76,6.47c-1.84,1.8-4.05,2.7-6.64,2.7c-1.25,0-2.45-0.24-3.59-0.71
					c-1.14-0.47-2.14-1.1-3-1.88c-0.86-0.78-1.55-1.72-2.06-2.82C656.06,114.57,655.8,113.39,655.8,112.14z"></path>
          <path class="st3"
            d="M700.35,121.77c-2.59,0-5.11-0.35-7.58-1.06s-4.66-1.76-6.58-3.17c-1.92-1.41-3.47-3.17-4.64-5.29
					c-1.18-2.12-1.76-4.58-1.76-7.41c0-3.06,0.55-5.66,1.65-7.82c1.1-2.16,2.57-3.96,4.41-5.41c1.84-1.45,3.98-2.6,6.41-3.47
					c2.43-0.86,4.96-1.51,7.58-1.94c2.62-0.43,5.27-0.71,7.93-0.82c2.66-0.12,5.17-0.18,7.52-0.18h3.53v-1.53
					c0-3.53-1.22-6.17-3.64-7.93c-2.43-1.76-5.52-2.65-9.29-2.65c-2.98,0-5.76,0.53-8.35,1.59c-1.28,0.52-2.48,1.14-3.59,1.85
					c-1.98,1.26-4.57,0.99-6.23-0.67l-0.43-0.43c-2.27-2.27-1.82-6.01,0.86-7.77c1.94-1.27,4.02-2.28,6.26-3.03
					c4.19-1.41,8.52-2.12,12.99-2.12c4,0,7.37,0.45,10.11,1.35c2.74,0.9,5.01,2.06,6.82,3.47c1.8,1.41,3.19,3.04,4.17,4.88
					c0.98,1.84,1.68,3.7,2.12,5.58c0.43,1.88,0.69,3.7,0.76,5.47c0.08,1.76,0.12,3.31,0.12,4.64v10.95
					c0,12.65-6.57,22.91-22.91,22.91H700.35z M717.98,95.09h-2.94c-1.96,0-4.15,0.08-6.58,0.24c-2.43,0.16-4.72,0.53-6.88,1.12
					c-2.16,0.59-3.98,1.45-5.47,2.59c-1.49,1.14-2.23,2.72-2.23,4.76c0,1.33,0.29,2.45,0.88,3.35c0.59,0.9,1.35,1.67,2.29,2.29
					c0.94,0.63,2,1.08,3.17,1.35c1.18,0.28,2.35,0.41,3.53,0.41c4.86,0,8.44-1.16,10.75-3.47c2.31-2.31,3.47-5.47,3.47-9.46V95.09z"></path>
          <path class="st3"
            d="M736.85,44.78c0-2.27,0.84-4.25,2.53-5.94c1.68-1.68,3.82-2.53,6.41-2.53c2.59,0,4.76,0.8,6.52,2.41
					c1.76,1.61,2.64,3.63,2.64,6.05c0,2.43-0.88,4.45-2.64,6.05c-1.76,1.61-3.94,2.41-6.52,2.41c-2.59,0-4.72-0.84-6.41-2.53
					C737.69,49.03,736.85,47.05,736.85,44.78z M743.85,63.94h4.11c2.76,0,5,2.24,5,5v46.42c0,2.76-2.24,5-5,5h-4.11
					c-2.76,0-5-2.24-5-5V68.94C738.85,66.18,741.09,63.94,743.85,63.94z"></path>
        </g>
      </g>
      <g>
        <path class="st3"
          d="M147.03,87.51l-21.21-7.38c-11.16-3.88-19.93-12.65-23.81-23.81L94.63,35.1c-1.18-3.38-5.96-3.38-7.14,0
				l-6.75,19.4v0c0,0,0,0.01-0.01,0.03l-0.16,0.46c-0.26,0.82-0.75,2.61-0.75,4.71v1.5c0,0,0.18,7.42,6.92,6.28
				c1.4-0.25,2.85-0.39,4.32-0.39c13.25,0,23.99,10.74,23.99,23.99c0,13.25-10.74,23.99-23.99,23.99s-23.99-10.74-23.99-23.99V74.32
				c-3.22,2.47-6.85,4.44-10.78,5.8l-21.21,7.38c-3.38,1.18-3.38,5.96,0,7.14l21.21,7.38c11.16,3.88,19.93,12.65,23.81,23.81
				l7.38,21.21c1.18,3.38,5.96,3.38,7.14,0l7.38-21.21c3.88-11.16,12.65-19.93,23.81-23.81l21.21-7.38
				C150.41,93.47,150.41,88.68,147.03,87.51z"></path>
        <path class="st3"
          d="M102.29,91.07c0-6.21-5.03-11.24-11.24-11.24c-6.21,0-11.24,5.03-11.24,11.24c0,6.21,5.03,11.24,11.24,11.24
				C97.26,102.31,102.29,97.28,102.29,91.07z"></path>
        <path class="st3"
          d="M33.25,49.84l5.9,2.05c3.11,1.08,5.55,3.52,6.63,6.63l2.05,5.9c0.33,0.94,1.66,0.94,1.99,0l2.05-5.9
				c1.08-3.11,3.52-5.55,6.63-6.63l5.9-2.05c0.94-0.33,0.94-1.66,0-1.99l-5.9-2.05c-3.11-1.08-5.55-3.52-6.63-6.63l-2.05-5.9
				c-0.33-0.94-1.66-0.94-1.99,0l-2.05,5.9c-1.08,3.11-3.52,5.55-6.63,6.63l-5.9,2.05C32.31,48.18,32.31,49.51,33.25,49.84z"></path>
      </g>
    </g>
  </g>
  <g id="Layer_2"></g>
</svg>