<svg viewBox="0 0 29.994 29.704" xmlns="http://www.w3.org/2000/svg">
  <defs></defs>
  <path
    d="M 20.581 7.006 C 19.801 7.006 19.177 7.637 19.177 8.41 C 19.177 9.183 19.808 9.814 20.581 9.814 C 21.354 9.814 21.985 9.183 21.985 8.41 C 21.985 7.637 21.354 7.006 20.581 7.006 Z"
    fill="#64748B"></path>
  <path
    d="M 15.328 8.81 C 12.073 8.81 9.422 11.462 9.422 14.717 C 9.422 17.972 12.073 20.624 15.328 20.624 C 18.583 20.624 21.235 17.972 21.235 14.717 C 21.235 11.462 18.583 8.81 15.328 8.81 Z M 15.328 18.501 C 13.24 18.501 11.544 16.806 11.544 14.717 C 11.544 12.628 13.24 10.933 15.328 10.933 C 17.417 10.933 19.112 12.628 19.112 14.717 C 19.112 16.806 17.417 18.501 15.328 18.501 Z"
    fill="#64748B"></path>
  <path
    d="M 20.021 26.721 L 10.439 26.721 C 6.465 26.721 3.23 23.486 3.23 19.512 L 3.23 9.929 C 3.23 5.955 6.465 2.721 10.439 2.721 L 20.021 2.721 C 23.995 2.721 27.23 5.955 27.23 9.929 L 27.23 19.512 C 27.23 23.486 23.995 26.721 20.021 26.721 Z M 10.439 4.986 C 7.713 4.986 5.488 7.203 5.488 9.936 L 5.488 19.519 C 5.488 22.245 7.706 24.469 10.439 24.469 L 20.021 24.469 C 22.747 24.469 24.972 22.251 24.972 19.519 L 24.972 9.936 C 24.972 7.21 22.754 4.986 20.021 4.986 L 10.439 4.986 Z"
    fill="#64748B"></path>
</svg>