<?xml version="1.0" encoding="utf-8"?>
<!-- Generator: Adobe Illustrator 27.1.1, SVG Export Plug-In . SVG Version: 6.00 Build 0)  -->
<svg version="1.1" xmlns="http://www.w3.org/2000/svg" xmlns:xlink="http://www.w3.org/1999/xlink" x="0px" y="0px"
	 viewBox="0 0 40 40" style="enable-background:new 0 0 40 40;" xml:space="preserve">
<style type="text/css">
	.st0{fill:#189611;}
	.st1{fill:#2C2830;}
	.st2{fill:#825946;}
	.st3{fill:#7418EA;}
	.st4{fill:#FFFFFF;}
	.st5{fill:#231F20;}
	.st6{fill:#606060;}
	.st7{opacity:0.2;fill:#606060;}
	.st8{fill-rule:evenodd;clip-rule:evenodd;fill:#2C2830;}
</style>
<g id="logo-blogverse">
	<g>
		<path class="st1" d="M37.55,17.44c-0.2-5.15-2.96-10.03-7.08-13.03C22.41-1.86,10.23-0.95,3.25,6.46C3.1,6.61,3.33,6.83,3.47,6.69
			c3.47-3.35,8.15-5.39,12.96-5.57c9.35-0.56,19.26,6.57,19.26,16.38c0.21,8.75-7.62,16.74-16.46,13.71
			c-1.19-0.41-2.29-1.01-3.25-1.75c-0.39-0.3-0.04-0.92,0.42-0.73c3.15,1.3,7,1.1,9.92-1.1c6.04-4.43,6.34-13.77,0.63-18.58
			c-4.06-3.67-10.15-4.62-15.15-2.43C8.14,8.2,5.34,11.38,3.8,14.99c-0.54,1.16-0.85,2.46-1.12,3.72c-0.06,0.56-0.21,1.37-0.22,1.93
			c-0.01,0.56-0.07,1.39-0.01,1.93c0.2,5.15,2.96,10.03,7.08,13.03c8.07,6.27,20.25,5.36,27.23-2.05c0.15-0.15-0.09-0.37-0.22-0.22
			c-3.47,3.35-8.15,5.39-12.96,5.57C14.22,39.44,4.31,32.31,4.32,22.5C4.11,13.75,11.93,5.77,20.78,8.79
			c1.19,0.41,2.29,1.01,3.25,1.75c0.39,0.3,0.04,0.92-0.42,0.73c-3.15-1.3-7-1.1-9.92,1.1c-6.04,4.43-6.34,13.77-0.63,18.58
			c4.06,3.67,10.15,4.62,15.15,2.43c3.65-1.58,6.45-4.76,7.99-8.37c0.54-1.16,0.85-2.46,1.12-3.72c0.06-0.56,0.21-1.37,0.22-1.93
			C37.56,18.81,37.61,17.98,37.55,17.44z"/>
	</g>
	<polygon class="st4" points="26.95,18.69 21.31,18.69 21.31,13.05 18.69,13.05 18.69,18.69 13.05,18.69 13.05,21.31 18.69,21.31 
		18.69,26.95 21.31,26.95 21.31,21.31 26.95,21.31 	"/>
</g>
<g id="Layer_2">
</g>
</svg>
