<?xml version="1.0" encoding="utf-8"?>
<!-- Generator: Adobe Illustrator 27.1.1, SVG Export Plug-In . SVG Version: 6.00 Build 0)  -->
<svg version="1.1" xmlns="http://www.w3.org/2000/svg" xmlns:xlink="http://www.w3.org/1999/xlink"
	x="0px" y="0px"
	viewBox="0 0 40 40" style="enable-background:new 0 0 40 40;" xml:space="preserve">
<style type="text/css">
	.st0{fill:#189611;}
	.st1{fill:#2C2830;}
	.st2{fill:#825946;}
	.st3{fill:#7418EA;}
	.st4{fill:#FFFFFF;}
	.st5{fill:#231F20;}
	.st6{fill:#606060;}
	.st7{opacity:0.2;fill:#606060;}
	.st8{fill-rule:evenodd;clip-rule:evenodd;fill:#2C2830;}
</style>
<g id="logo-blogverse">
	<path class="st8" d="M12.41,5.02c-1.12,0.08-2.27,0.17-3.49,0.27c-1.26,0.1-2.28,1.15-2.39,2.48c-0.12,1.37-0.2,2.67-0.27,3.9
		c-0.23-0.07-0.52-0.19-0.82-0.4c0.17-0.39,0.27-0.82,0.27-1.27c0-1.67-1.28-3.02-2.86-3.02C1.28,6.98,0,8.33,0,10
		c0,1.54,1.09,2.81,2.51,2.99c0.22,0.55,1.03,1.65,2.82,2.59c-0.47,0.49-0.75,1.19-0.71,1.93l0.15,3.25
		c0.07,1.47,0.79,2.78,1.88,3.57c0.28,2.45,0.69,5.03,1.21,7.97c0.22,1.22,1.18,2.14,2.35,2.23c11.3,0.91,20.63,0.28,24.5-0.09
		c1.15-0.11,2.06-1.01,2.24-2.22c0.26-1.78,0.63-4.59,0.94-7.88c1.14-0.79,1.89-2.12,1.96-3.63L40,17.5
		c0.05-1.14-0.61-2.15-1.58-2.52c0.03-2.54-0.04-5.07-0.29-7.4c-0.13-1.25-1.11-2.2-2.3-2.3c-1.24-0.11-2.43-0.2-3.58-0.29
		c-2.99,1.56-6.37,2.44-9.93,2.44C18.75,7.44,15.4,6.57,12.41,5.02z M7.32,16.36c-0.65,0.06-1.14,0.66-1.1,1.35l0.2,3.5
		c0.08,1.32,1.02,2.41,2.27,2.58c10.53,1.45,16.73,1.36,27.21-0.02c1.25-0.16,2.22-1.25,2.29-2.59l0.2-3.49
		c0.04-0.69-0.45-1.28-1.1-1.34C25.65,15.26,18.7,15.34,7.32,16.36z"/>
</g>
<g id="Layer_2">
</g>
</svg>