<svg width="22" height="24" viewBox="0 0 22 24" fill="none" xmlns="http://www.w3.org/2000/svg">
<path d="M21.1945 9.71175C21.0016 9.7317 20.8021 9.73835 20.6025 9.74501C18.4406 9.74501 16.4251 8.6541 15.2411 6.84478V16.7095C15.2411 20.7406 11.975 24 7.95062 24C3.92623 24 0.660156 20.7339 0.660156 16.7095C0.660156 12.6851 3.92623 9.41906 7.95062 9.41906C8.10362 9.41906 8.24996 9.43237 8.40295 9.43903V13.031C8.25661 13.0111 8.10362 12.9845 7.95062 12.9845C5.89519 12.9845 4.22557 14.6541 4.22557 16.7095C4.22557 18.765 5.89519 20.4346 7.95062 20.4346C10.0061 20.4346 11.822 18.8115 11.822 16.7561L11.8553 0H15.2943C15.6202 3.08647 18.1014 5.49445 21.1945 5.72061V9.71175Z" fill="#64748B"/>
</svg>
