<svg width="25" height="20" viewBox="0 0 25 20" fill="none" xmlns="http://www.w3.org/2000/svg">
<path d="M24.5485 2.49197C23.7892 2.83812 22.9462 3.04469 22.1199 3.18427C22.5107 3.11727 23.0857 2.41381 23.3146 2.12349C23.6664 1.68801 23.9567 1.19113 24.1186 0.655155C24.1409 0.616074 24.1577 0.560246 24.1186 0.526748C24.0684 0.504416 24.0293 0.51558 23.9902 0.537912C23.0746 1.02922 22.1255 1.38653 21.1149 1.63777C21.0312 1.6601 20.9698 1.63777 20.9139 1.58752C20.8302 1.49261 20.752 1.40328 20.6627 1.3307C20.2384 0.967804 19.7806 0.688653 19.267 0.476498C18.5914 0.20293 17.8544 0.085685 17.1287 0.130349C16.4196 0.175013 15.7273 0.376006 15.102 0.705405C14.4711 1.0348 13.9128 1.49261 13.4662 2.03975C13.0028 2.60922 12.6622 3.28476 12.4892 3.99939C12.3217 4.6861 12.3328 5.36723 12.4389 6.06511C12.4557 6.18235 12.4389 6.19352 12.3384 6.18235C8.38563 5.59613 5.1084 4.17804 2.45088 1.15204C2.33363 1.01805 2.27222 1.01805 2.17731 1.16321C1.01604 2.90512 1.57992 5.7078 3.03151 7.0868C3.22692 7.27104 3.42232 7.45528 3.64006 7.62277C3.5619 7.63952 2.59604 7.53345 1.73067 7.0868C1.61342 7.01423 1.55759 7.0533 1.54643 7.18729C1.53526 7.37712 1.54643 7.55019 1.57992 7.75118C1.80325 9.521 3.02593 11.1568 4.70642 11.7933C4.90741 11.877 5.12515 11.9496 5.34288 11.9887C4.96324 12.0724 4.56684 12.1339 3.47257 12.0445C3.33858 12.0166 3.28275 12.0892 3.33858 12.2176C4.15928 14.462 5.94027 15.1319 7.26903 15.5116C7.44769 15.5451 7.62634 15.5451 7.805 15.5842C7.79383 15.6009 7.78267 15.6009 7.7715 15.6177C7.33044 16.2932 5.80069 16.7901 5.08607 17.0413C3.7908 17.4936 2.3783 17.7001 1.01046 17.5661C0.792717 17.5326 0.74247 17.5382 0.68664 17.5661C0.625227 17.6052 0.681057 17.6555 0.748053 17.7113C1.0272 17.8955 1.30636 18.0574 1.59667 18.2138C2.46763 18.6772 3.37208 19.0401 4.32119 19.3025C9.22309 20.6536 14.7391 19.6598 18.4183 16.0085C21.3048 13.1388 22.3209 9.18044 22.3209 5.21649C22.3209 5.06016 22.5051 4.97642 22.6112 4.89267C23.3649 4.32879 23.9679 3.65324 24.5317 2.89953C24.6602 2.73204 24.6602 2.5813 24.6602 2.51989V2.49756C24.6602 2.43614 24.6602 2.45289 24.5597 2.49756L24.5485 2.49197Z" fill="#64748B"/>
</svg>
